<svg width="12" height="13" viewBox="0 0 12 13" fill="none" xmlns="http://www.w3.org/2000/svg">
<g clip-path="url(#clip0_3_27495)">
<path d="M6.3029 1.1127L6.30326 1.11304L9.89876 4.53804C9.96726 4.60685 10.0008 4.69328 9.99999 4.77798C9.9992 4.8637 9.96327 4.95087 9.89158 5.01916C9.8191 5.0882 9.71619 5.1313 9.60386 5.13223C9.49279 5.13315 9.38996 5.09269 9.31614 5.02599L7.25664 3.06415L6.41178 2.25934V3.42618V11.6428C6.41178 11.7295 6.37586 11.8179 6.30336 11.8869C6.23004 11.9568 6.12562 12 6.01196 12C5.89829 12 5.79388 11.9568 5.72055 11.8869C5.64806 11.8179 5.61214 11.7295 5.61214 11.6428V3.42618V2.26004L4.76743 3.064L2.70234 5.02945L2.70229 5.02939L2.69595 5.03564C2.6602 5.0709 2.61611 5.1003 2.56561 5.12097C2.51508 5.14164 2.45991 5.15283 2.4035 5.1533C2.34709 5.15376 2.29166 5.14349 2.24065 5.12361C2.18968 5.10374 2.14493 5.075 2.10842 5.04022C2.07196 5.00549 2.04452 4.96555 2.02642 4.92341C2.00836 4.88134 1.99961 4.83718 2.00001 4.79327C2.00041 4.74935 2.00996 4.70527 2.02885 4.66339C2.04777 4.62143 2.07602 4.58182 2.11324 4.54758L2.11329 4.54763L2.11957 4.54165L5.71885 1.11304L5.71921 1.1127C5.75494 1.07859 5.7988 1.05039 5.84882 1.03091L5.85051 1.03024C5.95291 0.98992 6.0692 0.98992 6.1716 1.03024L6.1733 1.0309C6.22332 1.05039 6.26717 1.07859 6.3029 1.1127Z" fill="#9CA3AF" stroke="#0E9F6E"/>
</g>
<defs>
<clipPath id="clip0_3_27495">
<rect width="12" height="12" fill="white" transform="translate(0 0.5)"/>
</clipPath>
</defs>
</svg>
