<svg width="33" height="32" viewBox="0 0 33 32" fill="none" xmlns="http://www.w3.org/2000/svg">
<path d="M28.0085 16.8604L26.4148 16.5005C26.0549 16.3977 25.7978 16.1406 25.6436 15.7807C25.4894 15.3695 25.3351 15.0096 25.1809 14.5983C25.0267 14.2898 25.0267 13.8785 25.2323 13.5701L26.1063 12.182C26.3634 11.7707 26.3119 11.2565 25.9521 10.8967L24.4611 9.40574C24.1013 9.04587 23.5871 8.99445 23.1759 9.25151L21.7877 10.1769C21.4793 10.3826 21.068 10.3826 20.7595 10.2283C20.3996 10.0227 19.9884 9.86845 19.5771 9.76562C19.2172 9.6628 18.9601 9.35433 18.8573 8.99445L18.5488 7.40071C18.446 6.88659 18.0347 6.57812 17.572 6.57812H15.4128C14.9501 6.57812 14.5388 6.88659 14.4359 7.40071L14.0761 8.99445C13.9732 9.35433 13.7162 9.61139 13.3563 9.76562C12.945 9.91986 12.5851 10.0741 12.1738 10.2283C11.8654 10.3826 11.4541 10.3826 11.1456 10.1769L9.80893 9.30292C9.39763 9.04587 8.88352 9.09728 8.52364 9.45716L7.03272 10.9481C6.67284 11.308 6.62143 11.8221 6.87848 12.2334L7.75247 13.6215C7.95812 13.9299 7.95812 14.3412 7.80389 14.6497C7.59824 15.0096 7.44401 15.4209 7.34118 15.8322C7.23836 16.192 6.92989 16.4491 6.57002 16.5519L4.97627 16.8604C4.46215 16.9632 4.15369 17.3745 4.15369 17.8372V19.9965C4.15369 20.4592 4.46215 20.8705 4.97627 20.9733L6.57002 21.3332C6.92989 21.436 7.18695 21.693 7.34118 22.0529C7.49542 22.4642 7.64965 22.8241 7.80389 23.2354C7.95812 23.5438 7.95812 23.9551 7.75247 24.2636L6.87848 25.6003C6.62143 26.0116 6.67284 26.5257 7.03272 26.8856L8.52364 28.3765C8.88352 28.7364 9.39763 28.7878 9.80893 28.5307L11.197 27.6567C11.5055 27.4511 11.9168 27.4511 12.2253 27.6053C12.5851 27.811 12.9964 27.9652 13.4077 28.068C13.7676 28.1709 14.0246 28.4793 14.1275 28.8392L14.4874 30.433C14.5902 30.8957 15.0015 31.2555 15.4642 31.2555H17.6234C18.0861 31.2555 18.4974 30.9471 18.6003 30.433L18.9601 28.8392C19.063 28.4793 19.32 28.2223 19.6799 28.068C20.0912 27.9138 20.4511 27.7596 20.8623 27.6053C21.1708 27.4511 21.5821 27.4511 21.8906 27.6567L23.2787 28.5307C23.69 28.7878 24.2041 28.7364 24.564 28.3765L26.0549 26.8856C26.4148 26.5257 26.4662 26.0116 26.2091 25.6003L25.2323 24.2122C25.0267 23.9037 25.0267 23.4924 25.1809 23.184C25.3865 22.8241 25.5408 22.4128 25.6436 22.0015C25.7464 21.6416 26.0549 21.3846 26.4148 21.2817L28.0085 20.9219C28.4712 20.819 28.8311 20.4078 28.8311 19.9451V17.7858C28.8311 17.3745 28.5226 16.9632 28.0085 16.8604Z" fill="white"/>
<circle cx="16.4925" cy="18.912" r="4.93548" fill="#292D53"/>
<path d="M29.1093 13.6802L29.1097 13.6671V13.6541C29.1097 11.8904 28.3148 9.83704 27.0943 8.05869C25.8689 6.27321 24.1456 4.66338 22.1726 3.85394L21.5713 3.60725L21.2488 4.17156L20.2258 5.96171V2.96568C20.2258 2.09411 19.5242 1.39249 18.6527 1.39249H14.3495C13.4233 1.39249 12.8226 2.15101 12.8226 2.96568V6.00733L11.7504 4.16627L11.426 3.60929L10.8296 3.85394C8.85512 4.66399 7.14288 6.27527 5.92912 8.06152C4.72296 9.8366 3.94275 11.8829 3.93877 13.6406L3.89295 14.939L3.8659 15.7054L3.93876 15.7054C3.35789 15.7054 2.78138 16.0348 2.55998 16.6246C2.32299 17.1451 2.38329 17.8317 2.90712 18.2618C2.97554 18.3198 3.03853 18.3533 3.06629 18.3676C3.11127 18.3907 3.15358 18.4078 3.18636 18.42C3.25241 18.4445 3.32435 18.4653 3.39508 18.4834C3.53896 18.5201 3.72999 18.5584 3.97005 18.5975C4.45277 18.6762 5.17355 18.7645 6.19219 18.8474C8.23098 19.0134 11.491 19.1602 16.478 19.1602C21.4649 19.1602 24.725 19.0134 26.7637 18.8474C27.7824 18.7645 28.5032 18.6762 28.9859 18.5975C29.2259 18.5584 29.417 18.5201 29.5609 18.4834C29.6316 18.4653 29.7035 18.4445 29.7696 18.42C29.8024 18.4078 29.8447 18.3907 29.8896 18.3676C29.9123 18.3559 29.9583 18.3315 30.0116 18.2915C30.6128 17.8704 30.6847 17.1577 30.4422 16.6245C30.229 16.0579 29.6727 15.7054 29.1097 15.7054L29.0378 15.7054L29.063 14.9912L29.1093 13.6802Z" fill="#FF5A1F" stroke="#292D53" stroke-width="1.48064"/>
</svg>
